<svg width="87" height="76" viewBox="0 0 87 76" fill="none" xmlns="http://www.w3.org/2000/svg">
<path d="M53.2512 21.2484C53.5872 21.5413 53.8538 21.8893 54.0357 22.2724C54.2176 22.6555 54.3113 23.0661 54.3113 23.4809C54.3113 23.8956 54.2176 24.3063 54.0357 24.6893C53.8538 25.0724 53.5872 25.4204 53.2512 25.7134L39.1862 38L53.2512 50.2867C53.929 50.8788 54.3097 51.6818 54.3097 52.5192C54.3097 53.3565 53.929 54.1596 53.2512 54.7517C52.5734 55.3438 51.6541 55.6764 50.6955 55.6764C49.737 55.6764 48.8177 55.3438 48.1399 54.7517L31.5012 40.2167C31.1651 39.9237 30.8985 39.5758 30.7166 39.1927C30.5347 38.8096 30.4411 38.3989 30.4411 37.9842C30.4411 37.5695 30.5347 37.1588 30.7166 36.7757C30.8985 36.3926 31.1651 36.0447 31.5012 35.7517L48.1399 21.2167C49.5174 20.0134 51.8374 20.0134 53.2512 21.2484Z" fill="white"/>
</svg>
